<svg xmlns="http://www.w3.org/2000/svg" width="48" height="48" viewBox="0 0 48 48">
    <g fill="none" fill-rule="evenodd">
        <g>
            <g>
                <g>
                    <g>
                        <g>
                            <g transform="translate(-746 -231) translate(449 208) translate(43) translate(73 23) translate(181) translate(3 3)">
                                <circle cx="9.497" cy="31.491" r="9.497" fill="#F4E8FF"/>
                                <g fill-rule="nonzero">
                                    <path fill="#9327E6" d="M29.972 10.452c0 .637.516 1.153 1.153 1.153s1.153-.516 1.153-1.153c0-1.907 1.551-3.458 3.458-3.458.637 0 1.153-.517 1.153-1.153 0-.637-.516-1.153-1.153-1.153-1.875 0-3.458-1.619-3.458-3.535C32.278.516 31.762 0 31.125 0s-1.153.516-1.153 1.153c0 1.916-1.583 3.535-3.458 3.535-.637 0-1.153.516-1.153 1.153 0 .636.516 1.153 1.153 1.153 1.907 0 3.458 1.551 3.458 3.458zm1.153-5.81c.332.446.73.85 1.172 1.187-.444.331-.839.725-1.172 1.168-.333-.443-.728-.837-1.172-1.168.441-.336.84-.74 1.172-1.188z" transform="translate(3.999)"/>
                                    <path fill="#23334A" d="M0 26.59v4.689c0 1.503.964 2.784 2.306 3.26v1.35c0 1.908 1.551 3.46 3.458 3.46 1.907 0 3.458-1.552 3.458-3.46v-1.152h16.14v1.153c0 1.907 1.55 3.458 3.458 3.458 1.906 0 3.458-1.551 3.458-3.458v-1.351c1.342-.476 2.305-1.757 2.305-3.26V26.59c0-2.866-2.102-5.249-4.845-5.69l-1.669-6.677c-.386-1.542-1.765-2.62-3.355-2.62H12.681c-1.907 0-3.459-1.55-3.459-3.458 0-.636-.516-1.152-1.153-1.152-.636 0-1.152.516-1.152 1.152 0 1.907-1.552 3.459-3.459 3.459-.636 0-1.152.516-1.152 1.152 0 .637.516 1.153 1.152 1.153 1.14 0 2.153.555 2.783 1.408L4.845 20.9C2.102 21.342 0 23.725 0 26.591zm6.917 9.3c0 .635-.518 1.153-1.153 1.153-.636 0-1.153-.518-1.153-1.153v-1.153h2.306v1.153zm21.903 1.153c-.636 0-1.153-.518-1.153-1.153v-1.153h2.305v1.153c0 .635-.517 1.153-1.152 1.153zm3.458-10.452v4.688c0 .635-.517 1.153-1.153 1.153H3.458c-.635 0-1.152-.518-1.152-1.153V26.59c0-1.906 1.549-3.456 3.454-3.459h23.064c1.905.003 3.454 1.553 3.454 3.459zm-13.523-5.764c.399-.688 1.144-1.153 1.995-1.153.851 0 1.596.465 1.996 1.153h-3.991zM12.68 13.91h12.033c.53 0 .99.36 1.118.874l1.511 6.043h-2.128c-.513-1.987-2.32-3.458-4.465-3.458s-3.952 1.471-4.465 3.458H7.24l.584-2.333c.079.018.161.027.245.027.637 0 1.153-.516 1.153-1.152 0-1.907 1.552-3.459 3.459-3.459zm-4.612-2.309c.33.438.72.828 1.157 1.156-.438.33-.828.72-1.157 1.157-.328-.438-.718-.828-1.156-1.157.438-.328.828-.718 1.156-1.156z" transform="translate(3.999)"/>
                                    <path fill="#9327E6" d="M28.304 25.56l-4.611 2.305c-.57.285-.8.977-.515 1.547.284.57.977.8 1.546.515l4.611-2.305c.57-.285.8-.977.516-1.547-.285-.57-.978-.8-1.547-.515zM10.89 27.865L6.28 25.56c-.57-.285-1.262-.054-1.547.515-.285.57-.054 1.262.515 1.547l4.611 2.305c.571.286 1.263.053 1.547-.515.285-.57.054-1.262-.516-1.547zM19.597 27.744h-4.61c-.638 0-1.154.516-1.154 1.152 0 .637.516 1.153 1.153 1.153h4.611c.637 0 1.153-.516 1.153-1.153 0-.636-.516-1.152-1.153-1.152z" transform="translate(3.999)"/>
                                </g>
                            </g>
                        </g>
                    </g>
                </g>
            </g>
        </g>
    </g>
</svg>
