<svg xmlns="http://www.w3.org/2000/svg" width="200" height="60" viewBox="0 0 200 60">
    <g fill="none">
        <path fill="#FFF" d="M198.595 52.258c0 1.506-.598 2.95-1.664 4.014-1.065 1.065-2.51 1.662-4.015 1.66H7.007c-1.507.002-2.953-.594-4.02-1.659-1.067-1.064-1.669-2.508-1.669-4.015V7c.005-3.139 2.55-5.68 5.69-5.682h185.905c1.507 0 2.952.599 4.018 1.664 1.066 1.066 1.664 2.511 1.664 4.018v45.258z"/>
        <path fill="#A6A6A6" d="M192.916 59.253H7.007C3.142 59.252.008 56.123 0 52.258V7.002C.007 3.136 3.14.004 7.007 0h185.906c3.866.005 7 3.137 7.007 7.002v45.256c-.011 3.86-3.143 6.985-7.004 6.988v.007z"/>
        <path fill="#000" d="M198.595 52.258c0 1.506-.598 2.95-1.664 4.014-1.065 1.065-2.51 1.662-4.015 1.66H7.007c-1.507.002-2.953-.594-4.02-1.659-1.067-1.064-1.669-2.508-1.669-4.015V7c.005-3.139 2.55-5.68 5.69-5.682h185.905c1.507 0 2.952.599 4.018 1.664 1.066 1.066 1.664 2.511 1.664 4.018v45.258z"/>
        <path fill="#FFF" d="M44.641 29.313c-.043-4.776 3.91-7.099 4.096-7.207-2.231-3.263-5.715-3.708-6.935-3.745-2.913-.306-5.74 1.745-7.229 1.745-1.489 0-3.8-1.716-6.265-1.665-3.17.048-6.137 1.884-7.763 4.735-3.36 5.814-.856 14.357 2.361 19.053 1.61 2.304 3.49 4.872 5.952 4.78 2.41-.096 3.306-1.532 6.212-1.532 2.906 0 3.723 1.533 6.234 1.475 2.583-.039 4.212-2.311 5.763-4.634 1.157-1.638 2.047-3.45 2.637-5.366-.065-.022-5.012-1.916-5.063-7.639zM39.899 15.27c1.296-1.62 2.168-3.822 1.928-6.058-1.875.082-4.217 1.296-5.57 2.892-1.192 1.395-2.26 3.684-1.985 5.836 2.114.144 4.282-1.073 5.627-2.67zM79.518 46.68h-3.373L74.3 40.896h-6.4l-1.756 5.784h-3.278l6.35-19.719h3.92l6.381 19.719zm-5.766-8.222l-1.668-5.15c-.175-.518-.508-1.756-1-3.713h-.06c-.194.839-.507 2.076-.937 3.713l-1.639 5.15h5.304zM95.812 39.395c0 2.42-.657 4.33-1.971 5.733-1.124 1.225-2.72 1.907-4.383 1.872-1.885 0-3.238-.671-4.06-2.014v7.47h-3.16V37.134c0-1.518-.038-3.076-.115-4.675H84.9l.176 2.256h.058c1.055-1.698 2.655-2.547 4.798-2.547 1.631-.024 3.182.71 4.197 1.988 1.121 1.325 1.682 3.071 1.682 5.238zm-3.22.116c0-1.383-.31-2.525-.934-3.424-.62-.9-1.65-1.427-2.742-1.403-.776 0-1.527.274-2.12.774-.637.517-1.08 1.235-1.254 2.036-.086.314-.134.638-.144.964v2.37c-.027.963.312 1.899.949 2.62.624.707 1.53 1.1 2.472 1.07 1.102.04 2.148-.481 2.779-1.385.663-.913.995-2.118.995-3.615v-.007zM112.164 39.395c0 2.42-.656 4.33-1.969 5.733-1.124 1.225-2.722 1.908-4.385 1.872-1.883 0-3.237-.671-4.06-2.014v7.47h-3.16V37.134c0-1.518-.038-3.076-.115-4.675h2.778l.176 2.256h.058c1.054-1.698 2.654-2.547 4.8-2.547 1.631-.023 3.18.711 4.197 1.988 1.118 1.325 1.678 3.071 1.68 5.238zm-3.22.116c0-1.383-.312-2.525-.937-3.424-.619-.903-1.653-1.431-2.747-1.403-.776 0-1.528.275-2.123.774-.633.518-1.07 1.236-1.24 2.036-.088.314-.138.638-.15.964v2.37c-.025.963.314 1.898.95 2.62.623.708 1.53 1.1 2.474 1.07 1.102.042 2.15-.48 2.78-1.385.664-.913.995-2.118.994-3.615v-.007zM130.448 41.15c0 1.677-.584 3.042-1.752 4.096-1.285 1.148-3.075 1.723-5.37 1.725-2.123 0-3.825-.41-5.107-1.229l.723-2.631c1.381.818 2.96 1.243 4.564 1.229 1.19 0 2.116-.269 2.778-.805.655-.517 1.025-1.314.998-2.147.016-.758-.281-1.49-.822-2.022-.547-.544-1.446-1.053-2.72-1.518-3.452-1.285-5.18-3.168-5.181-5.648-.036-1.537.638-3.005 1.829-3.978 1.22-1.036 2.834-1.554 4.843-1.552 1.793 0 3.29.31 4.475.935l-.79 2.576c-1.166-.617-2.47-.929-3.788-.906-1.114 0-1.988.272-2.615.819-.51.452-.8 1.103-.793 1.786-.01.748.325 1.46.909 1.927.525.466 1.481.972 2.867 1.518 1.687.687 2.945 1.482 3.743 2.398.818.95 1.25 2.173 1.21 3.426zM140.92 34.831h-3.481v6.904c0 1.757.614 2.634 1.843 2.631.472.01.943-.039 1.402-.147l.087 2.41c-.793.255-1.625.37-2.458.34-1.248 0-2.223-.381-2.925-1.142-.702-.762-1.054-2.04-1.055-3.834v-7.166h-2.075v-2.372h2.075v-2.602l3.106-.937v3.54h3.481v2.375zM156.6 39.453c0 2.186-.624 3.98-1.872 5.383-1.306 1.446-3.042 2.169-5.208 2.169-2.088 0-3.751-.69-4.99-2.072-1.238-1.382-1.858-3.127-1.858-5.237 0-2.204.639-4.008 1.916-5.412s3-2.106 5.166-2.108c2.089 0 3.766.693 5.032 2.08 1.212 1.34 1.817 3.072 1.814 5.197zm-3.275.072c.033-1.174-.26-2.335-.845-3.354-.663-1.128-1.613-1.687-2.839-1.687-1.206-.033-2.327.62-2.892 1.687-.592 1.038-.886 2.22-.848 3.415-.034 1.175.259 2.337.846 3.356.682 1.128 1.634 1.687 2.87 1.687 1.236 0 2.154-.576 2.838-1.72.6-1.028.901-2.202.87-3.39v.006zM166.872 35.239c-.328-.06-.661-.089-.995-.087-1.017-.048-1.989.427-2.576 1.26-.551.83-.827 1.812-.788 2.807v7.47h-3.159v-9.75c0-1.638-.03-3.13-.091-4.476h2.751l.116 2.72h.087c.3-.887.848-1.67 1.58-2.253.66-.493 1.46-.76 2.283-.761.264-.002.528.017.79.058v3.012h.002zM181 38.899c.008.48-.03.959-.116 1.431h-9.477c.036 1.405.497 2.482 1.376 3.222.803.66 1.836.991 3.099.993 1.31.018 2.61-.21 3.836-.673l.482 2.193c-1.512.617-3.134.916-4.766.877-2.206 0-3.938-.647-5.195-1.942-1.258-1.295-1.887-3.035-1.887-5.222 0-2.143.586-3.927 1.759-5.351 1.226-1.522 2.883-2.282 4.97-2.282 2.05 0 3.6.76 4.654 2.282.842 1.204 1.263 2.695 1.265 4.472zm-3.012-.827c.038-.846-.175-1.684-.612-2.41-.547-.881-1.39-1.32-2.518-1.32-1-.017-1.944.467-2.513 1.29-.536.709-.86 1.555-.935 2.44h6.578zM72.229 19.904h-1.656l-.906-2.846H66.52l-.865 2.846h-1.61l3.121-9.692h1.928l3.135 9.692zm-2.831-4.041l-.82-2.53c-.086-.26-.24-.863-.482-1.827h-.029c-.1.417-.24 1.022-.46 1.827l-.805 2.53h2.596zM80.031 12.916l-2.65 6.988H75.87l-2.56-6.988h1.668l1.205 3.696c.2.617.374 1.205.501 1.766h.044c.115-.5.286-1.091.5-1.766l1.182-3.696h1.621zM85.665 19.904l-.123-.805H85.5c-.475.644-1.242 1.006-2.041.964-1.25 0-2.142-.877-2.142-2.058 0-1.723 1.494-2.617 4.082-2.617v-.128c0-.92-.482-1.38-1.446-1.38-.647-.012-1.283.168-1.827.518l-.315-1.022c.73-.425 1.565-.634 2.41-.605 1.823 0 2.746.964 2.746 2.892v2.573c-.012.559.022 1.117.101 1.67l-1.402-.002zm-.217-3.48c-1.725 0-2.588.417-2.588 1.407 0 .723.446 1.094 1.063 1.094.812.022 1.491-.612 1.525-1.424v-1.077zM90.42 11.764c-.505-.028-.894-.453-.877-.957.017-.505.433-.903.938-.897.505.006.912.414.917.919.007.258-.095.507-.282.685-.186.178-.44.27-.697.25zm.807 8.14h-1.555v-6.988h1.555v6.988zM95.537 19.904L93.976 19.904 93.976 9.708 95.528 9.708zM102.137 19.904l-.115-.805h-.044c-.475.644-1.242 1.006-2.04.964-1.251 0-2.145-.877-2.145-2.058 0-1.723 1.496-2.617 4.096-2.617v-.128c0-.92-.482-1.38-1.446-1.38-.646-.012-1.282.168-1.826.518l-.318-1.022c.73-.425 1.565-.634 2.41-.605 1.826 0 2.746.964 2.746 2.892v2.573c-.01.558.024 1.115.1 1.668h-1.418zm-.21-3.48c-1.725 0-2.587.417-2.587 1.407 0 .723.446 1.094 1.062 1.094.813.022 1.492-.612 1.526-1.424v-1.077zM109.723 20.063c-.91.042-1.763-.439-2.198-1.239h-.031l-.09 1.08h-1.322c.043-.56.058-1.205.058-1.885V9.71h1.554v4.228h.031c.46-.776 1.205-1.164 2.227-1.164 1.687 0 2.862 1.446 2.862 3.538 0 2.169-1.308 3.752-3.091 3.752zm-.325-6.07c-.985.04-1.75.87-1.711 1.855v1.222c-.012.457.16.9.477 1.23.317.329.752.518 1.21.524 1.163 0 1.855-.947 1.855-2.458.005-1.41-.716-2.373-1.831-2.373zM116.663 19.904L115.113 19.904 115.113 9.708 116.663 9.708zM125.116 16.783h-4.66c.03 1.323.905 2.07 2.2 2.07.642.006 1.281-.106 1.884-.33l.24 1.08c-.742.303-1.54.45-2.341.43-2.188 0-3.482-1.382-3.482-3.522 0-2.14 1.325-3.754 3.306-3.754 1.783 0 2.906 1.323 2.906 3.323.01.235-.007.472-.053.703zm-1.424-1.106c0-1.08-.545-1.84-1.538-1.84-.894 0-1.595.775-1.699 1.84h3.237zM134.528 20.063c-2.041 0-3.374-1.526-3.374-3.596 0-2.168 1.352-3.696 3.482-3.696 2.01 0 3.374 1.446 3.374 3.583 0 2.183-1.383 3.709-3.482 3.709zm.06-6.155c-1.123 0-1.841 1.049-1.841 2.516 0 1.468.735 2.487 1.826 2.487 1.092 0 1.825-1.12 1.825-2.518 0-1.398-.718-2.485-1.81-2.485zM146.359 19.904h-1.54v-4c0-1.237-.482-1.856-1.41-1.856-.927 0-1.554.79-1.554 1.711v4.145h-1.551v-4.99c0-.618-.017-1.28-.058-1.998h1.366l.072 1.077h.044c.461-.774 1.302-1.24 2.202-1.222 1.465 0 2.429 1.12 2.429 2.947v4.186zM156.518 14.08h-1.708v3.395c0 .862.3 1.294.903 1.294.233.002.465-.022.692-.073l.043 1.179c-.388.128-.796.187-1.205.173-1.224 0-1.954-.675-1.954-2.443V14.08h-1.02v-1.164h1.02v-1.28l1.523-.46v1.74h1.708l-.002 1.164zM164.742 19.904h-1.554V15.92c0-1.25-.482-1.881-1.41-1.881-.805 0-1.551.547-1.551 1.653v4.212h-1.555V9.708h1.555v4.2h.028c.441-.733 1.246-1.169 2.102-1.137 1.48 0 2.385 1.15 2.385 2.976v4.157zM172.677 16.783h-4.66c.029 1.323.903 2.07 2.197 2.07.643.006 1.282-.106 1.885-.33l.24 1.08c-.743.303-1.541.45-2.344.43-2.188 0-3.482-1.382-3.482-3.522 0-2.14 1.326-3.754 3.306-3.754 1.783 0 2.906 1.323 2.906 3.323.012.235-.005.471-.048.703zm-1.424-1.106c0-1.08-.547-1.84-1.54-1.84-.891 0-1.595.775-1.686 1.84h3.226z"/>
    </g>
</svg>
