<svg xmlns="http://www.w3.org/2000/svg" width="648" height="596" viewBox="0 0 648 596">
    <g fill="none" fill-rule="evenodd">
        <g fill="#E1DAEB" transform="translate(2) matrix(-1 0 0 1 646 0)">
            <circle cx="3" cy="3" r="3"/>
            <circle cx="51" cy="3" r="3"/>
            <circle cx="99" cy="3" r="3"/>
            <circle cx="3" cy="131" r="3"/>
            <circle cx="51" cy="131" r="3"/>
            <circle cx="147" cy="131" r="3"/>
            <circle cx="99" cy="131" r="3"/>
            <circle cx="195" cy="131" r="3"/>
            <circle cx="241" cy="131" r="3"/>
            <circle cx="3" cy="67" r="3"/>
            <circle cx="51" cy="67" r="3"/>
            <circle cx="99" cy="67" r="3"/>
            <circle cx="3" cy="195" r="3"/>
            <circle cx="51" cy="195" r="3"/>
            <circle cx="147" cy="195" r="3"/>
            <circle cx="99" cy="195" r="3"/>
            <circle cx="195" cy="195" r="3"/>
            <circle cx="241" cy="195" r="3"/>
            <circle cx="3" cy="35" r="3"/>
            <circle cx="51" cy="35" r="3"/>
            <circle cx="99" cy="35" r="3"/>
            <circle cx="3" cy="163" r="3"/>
            <circle cx="51" cy="163" r="3"/>
            <circle cx="147" cy="163" r="3"/>
            <circle cx="99" cy="163" r="3"/>
            <circle cx="195" cy="163" r="3"/>
            <circle cx="241" cy="163" r="3"/>
            <circle cx="3" cy="99" r="3"/>
            <circle cx="51" cy="99" r="3"/>
            <circle cx="147" cy="99" r="3"/>
            <circle cx="99" cy="99" r="3"/>
            <circle cx="195" cy="99" r="3"/>
            <circle cx="241" cy="99" r="3"/>
            <circle cx="3" cy="227" r="3"/>
            <circle cx="51" cy="227" r="3"/>
            <circle cx="147" cy="227" r="3"/>
            <circle cx="99" cy="227" r="3"/>
            <circle cx="195" cy="227" r="3"/>
            <circle cx="241" cy="227" r="3"/>
        </g>
        <g>
            <g>
                <path fill="#CAE9F5" d="M484.817 392.262s.91-27.755 9.1-35.262c8.19-7.508 15.144-5.915 21.45-11.148 6.305-5.232 6.76-17.062 13.585-20.702 6.825-3.64 11.147-2.048 15.242-6.37 4.095-4.323 11.603-10.465 15.698-5.005 4.095 5.46-3.868 15.783-5.915 23.474-2.048 7.693-12.968 11.106-20.475 19.75-7.508 8.646-4.323 28.21-22.068 34.126" transform="translate(2) translate(0 89) translate(7 18.289)"/>
                <path fill="#E5F6FC" d="M480.857 389.024c1.276-13.789 2.571-27.675 6.44-40.972 2.281-7.837 5.437-15.396 8.855-22.808 4.601-9.983 9.033-18.974 17.135-26.4 5.8-5.318 17.898-8.166 22.033-4.428 7.584 6.856 2.976 19.951-.073 26.376-8.801 18.542-27.245 30.796-32.889 38.726-5.642 7.93-10.16 16.951-11.13 26.636" transform="translate(2) translate(0 89) translate(7 18.289)"/>
                <path fill="#CAE9F5" d="M33.427 284.395s-18.18 9.715-17.14 45.296c0 0 13.115-36.88 44.41-35.97 0 0-10.518-12.289-27.27-9.326" transform="translate(2) translate(0 89) translate(7 18.289)"/>
                <path fill="#CAE9F5" d="M93.223 394.297s9.028-66.295-8.373-94.083c-21.504-34.342-51.423-15.82-51.423-15.82s7.597-1.717 16.686 5.14c16.811 12.686 35.374 55.037 43.11 104.763" transform="translate(2) translate(0 89) translate(7 18.289)"/>
                <path fill="#DCEEFF" d="M91.425 390.922s-9.255-59.186 7.32-90.065c16.575-30.88 55.175-43.377 68.776-68.745 0 0 16.174 47.646-23.895 69.113-24.293 13.013-47.422 40.067-52.201 89.697" transform="translate(2) translate(0 89) translate(7 18.289)"/>
                <path fill="#E5F6FC" d="M.626 220.164s53.48 41.472 71.19 79.517c17.708 38.05 14.747 91.983 14.747 91.983s-6.486-23.893-44.446-61.649C-2.014 286.12.627 220.164.627 220.164" transform="translate(2) translate(0 89) translate(7 18.289)"/>
                <path fill="#B2DBF7" d="M144.407 306.774s21.655-2.306 30.97 15.359c7.61 14.441 7.61 22.02 7.61 22.02s10.175-19.129 0-38.24c-10.171-19.112-38.58.86-38.58.86" transform="translate(2) translate(0 89) translate(7 18.289)"/>
                <path fill="#CAE9F5" d="M95.564 365.25s1.753-64.157 37.722-77.834c33.662-12.802 49.702 18.496 49.702 18.496s-24.304-13.853-48.064 7.723c-16.006 14.53-29.495 50.113-29.495 50.113" transform="translate(2) translate(0 89) translate(7 18.289)"/>
                <path fill="#E9F3FF" d="M132.005 362.062l-11.311 78.984-6.441 44.912H65.717L47.963 362.061c-.27-1.936 1.249-3.69 3.221-3.69h77.618c1.973 0 3.472 1.754 3.203 3.69" transform="translate(2) translate(0 89) translate(7 18.289)"/>
                <path fill="#E5F6FC" d="M120.694 441.047l-6.441 44.912H65.715L47.963 362.062c-.27-1.938 1.249-3.693 3.222-3.693h9.389c4.888 18.463 23.012 75.8 60.12 82.678" transform="translate(2) translate(0 89) translate(7 18.289)"/>
                <path fill="#80C7E2" d="M266.804 179.976L278.215 179.976 278.215 151.963 266.804 151.963zM425.184 179.972L436.595 179.972 436.595 151.959 425.184 151.959z" transform="translate(2) translate(0 89) translate(7 18.289)"/>
                <path fill="#E5D7FD" d="M210.802 483.911L492.598 483.911 492.598 187.989 210.802 187.989z" transform="translate(2) translate(0 89) translate(7 18.289)"/>
                <path fill="#F7F7FF" d="M275.643 483.912L427.759 483.912 427.759 258.755 275.643 258.755z" transform="translate(2) translate(0 89) translate(7 18.289)"/>
                <path fill="#FFF" d="M427.759 328.018L427.759 373.493 331.087 258.754 369.402 258.754zM427.759 406.072L427.759 466.616 275.643 286.074 275.643 258.756 303.636 258.756zM399.563 483.913L375.896 483.913 275.643 364.926 275.643 336.836z" transform="translate(2) translate(0 89) translate(7 18.289)"/>
                <path fill="#C9B4EB" d="M271.598 483.911L275.643 483.911 275.643 258.755 271.598 258.755zM427.757 483.911L431.803 483.911 431.803 258.755 427.757 258.755z" transform="translate(2) translate(0 89) translate(7 18.289)"/>
                <path fill="#E6E6F7" d="M350.207 483.911L353.194 483.911 353.194 258.755 350.207 258.755z" transform="translate(2) translate(0 89) translate(7 18.289)"/>
                <g fill="#C9B4EB">
                    <path d="M265.6 74.353h-27.605c-1.11 0-2.01-.9-2.01-2.013V59.303c0-1.112.9-2.012 2.01-2.012H265.6c1.112 0 2.013.9 2.013 2.012V72.34c0 1.112-.9 2.013-2.013 2.013M265.6 17.933h-27.605c-1.11 0-2.01-.9-2.01-2.013V2.883c0-1.112.9-2.012 2.01-2.012H265.6c1.112 0 2.013.9 2.013 2.012V15.92c0 1.112-.9 2.013-2.013 2.013M258.689 164.553h-27.604c-1.112 0-2.013-.9-2.013-2.013v-13.036c0-1.112.901-2.013 2.013-2.013h27.604c1.11 0 2.011.9 2.011 2.013v13.036c0 1.112-.9 2.013-2.011 2.013M21.872 25.687H.402V8.625h21.47c1.11 0 2.011.9 2.011 2.013v13.037c0 1.112-.9 2.012-2.01 2.012M12.841 137.05H.401v-17.062h12.44c1.112 0 2.013.903 2.013 2.013v13.038c0 1.11-.9 2.012-2.013 2.012M260.728 19.492h21.47v17.062h-21.47c-1.11 0-2.012-.9-2.012-2.013V21.505c0-1.112.901-2.013 2.012-2.013M231.131 113.602h-9.728V96.54h9.728c1.112 0 2.013.9 2.013 2.01v13.04c0 1.111-.9 2.012-2.013 2.012M44.048 44.874H16.444c-1.112 0-2.013-.901-2.013-2.013V29.823c0-1.11.901-2.012 2.013-2.012h27.604c1.11 0 2.011.901 2.011 2.012V42.86c0 1.112-.9 2.013-2.011 2.013M45.863 186.89H18.259c-1.112 0-2.013-.9-2.013-2.012v-13.037c0-1.112.9-2.013 2.013-2.013h27.604c1.11 0 2.01.901 2.01 2.013v13.037c0 1.112-.9 2.013-2.01 2.013" transform="translate(2) translate(0 89) translate(7 18.289) translate(210.4 278.66)"/>
                </g>
                <path fill="#59B0D1" d="M210.802 187.99h281.796v-4.814c0-1.769-1.434-3.205-3.207-3.205H214.01c-1.771 0-3.207 1.436-3.207 3.205v4.814z" transform="translate(2) translate(0 89) translate(7 18.289)"/>
                <path fill="#D3C6E0" d="M361.435 380.787h-4.17c-.545 0-.986-.44-.986-.986v-22.142c0-.546.44-.987.987-.987h4.17c.545 0 .986.44.986.987V379.8c0 .546-.44.986-.987.986M346.193 380.787h-4.17c-.546 0-.986-.44-.986-.986v-22.142c0-.546.44-.987.986-.987h4.17c.546 0 .986.44.986.987V379.8c0 .546-.44.986-.986.986" transform="translate(2) translate(0 89) translate(7 18.289)"/>
                <path fill="#8EC1F4" d="M172.246 453.333c0 1.34-1.088 2.426-2.428 2.426-1.34 0-2.426-1.086-2.426-2.426s1.086-2.426 2.426-2.426 2.428 1.087 2.428 2.426M209.99 453.333c0 1.34-1.087 2.426-2.426 2.426-1.34 0-2.427-1.086-2.427-2.426s1.087-2.426 2.427-2.426 2.426 1.087 2.426 2.426M247.735 453.333c0 1.34-1.087 2.426-2.426 2.426-1.34 0-2.428-1.086-2.428-2.426s1.088-2.426 2.428-2.426c1.34 0 2.426 1.087 2.426 2.426" transform="translate(2) translate(0 89) translate(7 18.289)"/>
                <path fill="#FFC1CD" d="M156.75 78.542c-1.726-3.995-2.447-7.329-2.693-9.842-.142-1.387-.134-2.521-.08-3.39.08-1.291.273-1.972.273-1.972l-.682.182.022-.182-12.17 3.403-12.17-3.403s.01.073.02.182l-.682-.182s.195.68.275 1.973c.053.868.06 2.002-.08 3.389-.248 2.513-.966 5.847-2.695 9.842 0 0-1.127 2.887-8.96 3.888 0 0 .575 2.102 1.984 5.012.167.342.345.695.533 1.06.475.906 1.023 1.87 1.654 2.857 1.007 1.581 2.224 3.225 3.677 4.795 1.446 4.115 4.64 7.568 8.335 8.143 1.842.288 3.586.413 5.236.406.66-.004 1.305-.03 1.937-.073.315-.022.628-.049.935-.08.31.031.62.058.938.08.631.044 1.275.07 1.934.073 1.653.007 3.396-.118 5.238-.406 3.695-.575 6.887-4.028 8.336-8.143 1.452-1.57 2.668-3.214 3.676-4.795.632-.987 1.178-1.951 1.653-2.858.378-.726.71-1.416.997-2.05 1.074-2.385 1.369-3.515 1.369-3.515-7.837-1.001-8.81-4.394-8.81-4.394" transform="translate(2) translate(0 89) translate(7 18.289)"/>
                <path fill="#9327E6" d="M208.152 144.527l-22.015-22.013-1.882 59.445c-12.96 6.199-27.47 9.673-42.788 9.673-15.405 0-30.005-3.509-43.02-9.773l-.243-7.748-1.64-51.597-2.898 2.9H77.44c3.387-15.607 8.02-29.834 23.548-38.035 5.645-2.978 16.44-5.551 19.075-5.72.499-.019.952.245 1.15.7.377.852 1.098 2.38 2.171 4.228.155.111.264.288.288.488 2.823 4.781 7.86 11.43 15.202 14.473 1.646.682 3.52.682 5.166 0 7.34-3.043 12.37-9.692 15.204-14.473.022-.2.13-.377.287-.488 1.074-1.849 1.793-3.376 2.17-4.228.198-.455.653-.719 1.141-.7 3.325 1.17 12.108 3.541 18.287 6.066 22.159 11.71 25.484 37.257 27.024 56.802" transform="translate(2) translate(0 89) translate(7 18.289)"/>
                <path fill="#F6A1B0" d="M154.057 68.7c-.14-1.388-.1-2.521-.046-3.388l-.508-.973-12.068 3.216-12.065-3.216-.508.973c.055.867.06 2-.08 3.387 1.64 2.658 5.671 7.732 12.638 7.748v.002l.015-.002.018.002v-.002c6.967-.016 10.967-5.09 12.604-7.748" transform="translate(2) translate(0 89) translate(7 18.289)"/>
                <path fill="#FFC1CD" d="M119.512 40.469s1.369 4.59 2.492 10.57c.622 3.304.143 4.954-2.778 4.5-2.267-.352-8.04-7.151-6.07-12.99.461-1.365 2.882-3.78 6.356-2.08" transform="translate(2) translate(0 89) translate(7 18.289)"/>
                <path fill="#F6A1B0" d="M116.75 44.176c.744.815 1.274 1.818 1.609 2.868.364 1.15.448 2.3.493 3.496.011.31.52.417.572.078.182-1.257-.033-2.606-.443-3.802-.39-1.132-.98-2.19-1.823-3.05-.262-.266-.66.137-.408.41" transform="translate(2) translate(0 89) translate(7 18.289)"/>
                <path fill="#F6A1B0" d="M116.693 46.508c-.06-.007.031.006.035.006l.084.018c.054.013.105.025.154.044.053.018.102.038.153.056.015.005.097.04.03.01l.067.032c.105.049.209.104.307.166.044.027.088.056.13.085.014.011.076.058.029.02.027.02.049.04.074.06.091.077.177.158.259.246.04.045.082.09.12.136.007.01.063.08.043.057-.021-.031.03.038.035.045.157.219.306.492.44.674.206.278.612.114.554-.233-.051-.3-.217-.586-.399-.828-.175-.232-.366-.443-.591-.625-.232-.182-.474-.333-.748-.436-.133-.051-.262-.08-.4-.1-.039-.004-.039-.004-.003 0-.029-.002-.056-.008-.085-.011-.027-.004-.057-.008-.086-.01-.067-.007-.134-.009-.202-.009-.162 0-.298.137-.298.299 0 .178.138.278.298.298" transform="translate(2) translate(0 89) translate(7 18.289)"/>
                <path fill="#FFC1CD" d="M163.793 55.543c-.14.02-.266.032-.393.047-2.568.246-2.981-1.402-2.386-4.548.08-.428.16-.841.238-1.254 1.074-5.355 2.255-9.317 2.255-9.317 3.475-1.7 5.895.714 6.354 2.08 1.974 5.835-3.8 12.638-6.068 12.992" transform="translate(2) translate(0 89) translate(7 18.289)"/>
                <path fill="#F6A1B0" d="M165.862 43.767c-.845.857-1.434 1.916-1.822 3.05-.411 1.196-.626 2.542-.444 3.8.049.337.56.237.571-.076.048-1.198.13-2.348.495-3.498.332-1.049.861-2.053 1.61-2.867.249-.275-.146-.675-.41-.41" transform="translate(2) translate(0 89) translate(7 18.289)"/>
                <path fill="#F6A1B0" d="M166.326 45.911c-.062 0-.124.002-.188.007-.029.002-.058.006-.085.01l-.099.014.013-.002c-.146.018-.278.048-.415.1-.277.104-.519.255-.75.439-.225.18-.417.391-.59.622-.183.242-.349.528-.4.828-.058.344.348.514.553.233.048-.063.077-.094.124-.174l.099-.17c.063-.109.136-.212.209-.314l.05-.07c-.04.053.019-.023.028-.034.042-.051.086-.1.13-.15.081-.087.167-.167.258-.243.022-.018.04-.035.062-.051.02-.017.016-.013-.01.007l.039-.029c.045-.033.094-.066.142-.095.094-.058.193-.11.295-.16l.08-.036c-.068.029.023-.008.03-.011.046-.017.092-.035.139-.051.053-.02.11-.035.167-.05.028-.005.057-.012.084-.016.013-.001.095-.014.035-.007.16-.02.298-.122.298-.298 0-.162-.136-.299-.298-.299" transform="translate(2) translate(0 89) translate(7 18.289)"/>
                <path fill="#C2674A" d="M163.4 55.59c-2.568.245-2.981-1.402-2.388-4.549.08-.427.16-.84.24-1.254l.52.213s.027 5.45 1.628 5.59M119.617 55.59c2.568.245 2.981-1.402 2.388-4.549-.08-.427-.159-.84-.24-1.254l-.52.213s-.026 5.45-1.628 5.59" transform="translate(2) translate(0 89) translate(7 18.289)"/>
                <path fill="#FFC1CD" d="M141.455 25.362h-25.87s2.205 7.488 3.719 15.94c2.524 14.09 3.118 32.148 22.151 32.148 19.227 0 19.638-18.016 22.137-32.125 1.481-8.357 3.733-15.963 3.733-15.963h-25.87z" transform="translate(2) translate(0 89) translate(7 18.289)"/>
                <path fill="#1B2B38" d="M168.517 19.045c-4.585-8.918-8.807 6.17-8.807 6.17l.262.655-2.131.555c2.881 1.168 5.751 14.9 5.751 14.9l2.055-1.258-.002-.007.006.011s7.452-12.107 2.866-21.026" transform="translate(2) translate(0 89) translate(7 18.289)"/>
                <path fill="#FFC1CD" d="M89.8 159c3.69-6.824 7.748-18.998 7.748-18.998l-24.166-9.015c-9.775 20.117-12.931 36.82-12.931 36.82l29.35-8.806z" transform="translate(2) translate(0 89) translate(7 18.289)"/>
                <path fill="#F6A1B0" d="M288.731 172.918s1.997 1.214 3.59 2.01c1.592.797 6.067 4.759 8.91 5.043 0 0 2.692.114 2.617-.872-.076-.987-2.957-4.93-3.64-5.233-.682-.304-3.167-1.707-4.92-2.085-1.754-.379-3.468-.987-3.468-.987" transform="translate(2) translate(0 89) translate(7 18.289)"/>
                <path fill="#FFC1CD" d="M220.93 159.154s49.367 10.405 51.86 10.405c2.493 0 12.192-3.321 14.329-3.188 2.138.133 5.63.367 10.2 1.023 2.027.367 11.63 11.029 11.276 11.742-.357.714-2.139 1.336-4.008.535-1.869-.802-7.09-4.885-8.694-5.507-1.602-.624-5.922.268-7.704.98-1.782.713-4.357 2.826-4 3.182.355.357 1.412 1.207 3.283 1.72 1.869.515 6.94 2.319 7.564 4.636.624 2.315-1.96 2.404-4.81 1.96-2.85-.446-7.783-1.285-13.305-1.82-5.523-.533-7.655-4.33-9.527-4.776-2.284 0-55.354 1.069-61.766 0-6.413-1.068-19.845-36.314-19.845-36.314l35.148 15.422z" transform="translate(2) translate(0 89) translate(7 18.289)"/>
                <path fill="#FFC1CD" d="M192.458 154.071c-3.69-6.825-9.732-19.525-9.732-19.525l24.721-11.07c6.006 20.016 14.36 39.402 14.36 39.402l-29.35-8.807" transform="translate(2) translate(0 89) translate(7 18.289)"/>
                <path fill="#9327E6" d="M109.737 84.02s-17.44 5.28-22.969 11.906c-6.131 7.348-10.345 20.574-18.977 43.684 0 0 19.276 9.297 29.699 9.651l12.247-65.241zM168.912 83.566s22.48 5.553 26.79 11.426c5.313 7.238 12.55 20.799 19.421 44.617 0 0-19.406 9.264-29.831 9.619l-16.38-65.662z" transform="translate(2) translate(0 89) translate(7 18.289)"/>
                <path fill="#F6A1B0" d="M148.673 61.26c-1.425.751-4.317 1.302-7.209 1.302-2.896 0-5.791-.551-7.218-1.303 0 0-.602-.327-.64-.258-.044.075.45.55.633.7 1.405 1.153 4.49 1.944 7.216 1.944v.002H141.464v-.002c2.726 0 5.811-.791 7.216-1.943.182-.151.676-.626.636-.701-.04-.07-.643.258-.643.258" transform="translate(2) translate(0 89) translate(7 18.289)"/>
                <path fill="#1B2B38" d="M119.818 12.653s-2.652-2.968-.837-7.827c1.361-3.644 5.713-5.71 10.214-3.984 5.177 1.982 11.83-1.828 17.087 1.308 2.902 1.731 6.005 3.276 9.408 3.873 7.61 1.338 12.174-3.458 17.292 4.912 4.943 8.087-4.72 20.821-20.206 20.406-15.486-.415-22.846-7.078-28.85-4.575-6.006 2.5-6.971-8.705-6.971-8.705l2.863-5.408z" transform="translate(2) translate(0 89) translate(7 18.289)"/>
                <path fill="#1B2B38" d="M123.717 26.054l-3.9-13.401s-9.79-3.327-9.804 5.453c-.008 4.612 3.217 6.452 4.311 9.638-3.183 10.615 2.927 12.302 2.927 12.302l2.053 1.256s2.87-13.73 5.75-14.899l-1.337-.35z" transform="translate(2) translate(0 89) translate(7 18.289)"/>
                <path fill="#631AB2" d="M182.727 117.04l.166 1.384c.1.877.247 2.133.42 3.636l.559 5.14.553 5.896c.153 2.011.308 4.02.451 5.906.131 1.888.195 3.655.282 5.167.142 3.027.133 5.058.133 5.058l-.273-1.367c-.145-.872-.413-2.115-.624-3.614-.206-1.502-.5-3.249-.717-5.13-.237-1.88-.426-3.892-.612-5.905-.156-2.015-.31-4.03-.39-5.924-.1-1.893-.096-3.666-.126-5.183-.024-1.518.054-2.787.078-3.671.042-.887.1-1.393.1-1.393M100.004 117.04s.056.506.098 1.393c.024.884.102 2.153.078 3.67-.029 1.518-.025 3.291-.125 5.184-.08 1.895-.233 3.91-.391 5.924-.186 2.013-.375 4.024-.612 5.904-.215 1.882-.51 3.63-.717 5.13-.21 1.5-.479 2.743-.622 3.615-.173.87-.275 1.367-.275 1.367s-.008-2.031.133-5.058c.089-1.512.15-3.28.283-5.167.144-1.885.297-3.895.452-5.906.19-2.007.377-4.015.553-5.896l.557-5.14c.175-1.503.322-2.76.422-3.636l.166-1.384" transform="translate(2) translate(0 89) translate(7 18.289)"/>
                <path fill="#1B2B38" d="M123.243 26.567c4.375-.792 8.38 1.279 12.092 3.343 3.285 1.827 6.554 3.573 10.317 4.168 5.05.799 13.81.298 15.745-5.588.333-1.013-1.261-1.447-1.594-.44-1.081 3.287-5.37 4.233-8.4 4.553-3.685.394-7.392-.236-10.761-1.763-5.81-2.632-11.047-7.096-17.838-5.868-1.046.19-.602 1.784.439 1.595M121.704 8.711c-3.551-1.186-8.57-1.647-11.162 1.624-1.227 1.547-1.733 3.518-1.677 5.474.055 1.837.523 3.79 1.922 5.074.785.72 1.955-.446 1.17-1.168-1.13-1.037-1.43-2.637-1.441-4.111-.013-1.553.377-3.178 1.418-4.37 1.066-1.221 2.448-1.626 4.027-1.695 1.81-.078 3.586.193 5.302.767 1.01.338 1.445-1.258.44-1.595" transform="translate(2) translate(0 89) translate(7 18.289)"/>
                <path fill="#FFC1CD" d="M124.483 443.947L126.076 466.697 145.599 466.697 145.715 442.886z" transform="translate(2) translate(0 89) translate(7 18.289)"/>
                <path fill="#132236" d="M124.858 459s6.152-2.323 12.511-1.992c3.986.21 9.328 1.991 9.328 1.991s-.383 4.589 1.594 8.793c1.975 4.206 3.249 4.78 4.204 8.536.515 2.023.475 4.064.33 5.518-.119 1.176-1.109 2.066-2.292 2.066h-25.828c-1.04 0-1.96-.692-2.222-1.7-.384-1.48-.806-3.755-.62-6.137.318-4.077 2.995-17.076 2.995-17.076" transform="translate(2) translate(0 89) translate(7 18.289)"/>
                <path fill="#1F334C" d="M98.484 218.19s-7.735 25.48-5.472 54.095c1.037 13.133 9.14 48.788 14.864 88.17 6.612 45.483 14.352 90.725 14.352 90.725s6.004 1.407 15.64 1.41c6.577.004 11.564-1.41 11.564-1.41l-1.214-165.742-1.504-67.247h-48.23z" transform="translate(2) translate(0 89) translate(7 18.289)"/>
                <path fill="#FFC1CD" d="M124.513 420.328L112.272 435.813 127.506 449.037 142.486 434.326z" transform="translate(2) translate(0 89) translate(7 18.289)"/>
                <path fill="#1F334C" d="M131.228 445.381s-6.228 9.663-1.437 20.634c3.347 7.666 4.693 8.352 6.977 9.706 3.114 1.849 4.41 4.908 4.66 6.406.158.938-.58 1.784-1.527 1.784h-16.038c-2.044 0-3.959-.996-5.13-2.668l-23.213-33.09c-1.023-1.456-.986-3.414.111-4.814 2.117-2.699 5.844-6.91 9.671-8.657 7.61-3.471 10.029-3.657 11.465-4.554 1.907 2.097 7.982 6.272 11.28 9.724 2.908 3.047 3.181 5.53 3.181 5.53M184.008 219.254L214.26 340.16s3.684 13.153-4.207 25.782c-7.894 12.627-69.266 73.91-69.266 73.91s-3.001-.82-11.299-7.735c-5.46-4.55-9.555-10.16-9.555-10.16s38.903-56.647 50.13-74.08c-13.655-24.123-31.31-77.134-31.31-77.134l.227-53.613 45.028 2.124z" transform="translate(2) translate(0 89) translate(7 18.289)"/>
                <path fill="#132236" d="M119.933 421.956l7.11-10.936c2.163-3.26 4.684-7.064 7.39-11.139 2.728-4.056 5.639-8.386 8.552-12.714l8.65-12.646c2.79-4.018 5.392-7.77 7.62-10.985l7.534-10.647-7.109 10.936c-2.164 3.26-4.686 7.062-7.39 11.139l-8.553 12.712c-2.947 4.305-5.891 8.61-8.654 12.648l-7.617 10.981-7.533 10.651M140.787 439.852l9.695-10.281c2.932-3.061 6.357-6.63 10.025-10.456l11.562-11.914 5.919-6.011c1.967-1.991 3.87-3.91 5.65-5.879 3.625-3.867 7.01-7.476 9.907-10.57l9.757-10.232-9.375 10.572c-2.837 3.149-6.15 6.82-9.698 10.754-1.76 1.979-3.697 3.96-5.63 5.943-1.936 1.998-3.905 4.026-5.873 6.053-3.967 4.028-7.935 8.055-11.653 11.832-3.739 3.755-7.231 7.258-10.225 10.261l-10.061 9.928M146.369 230.081L146.542 282.574 144.549 230.108z" transform="translate(2) translate(0 89) translate(7 18.289)"/>
                <path fill="#132236" d="M137.597 222.51V229c0 .817.66 1.476 1.476 1.476h12.916c.814 0 1.474-.659 1.474-1.476v-6.49c0-.814-.66-1.476-1.474-1.476h-12.916c-.816 0-1.476.662-1.476 1.476" transform="translate(2) translate(0 89) translate(7 18.289)"/>
                <path fill="#132236" d="M97.438 225.876l3.716.473c2.362.319 5.75.648 9.806 1.07 4.053.432 8.802.761 13.88 1.109 2.537.196 5.168.282 7.835.433 2.671.062 5.383.171 8.097.182 2.712.002 5.425.13 8.095.033 2.668-.064 5.298-.06 7.835-.246 2.535-.17 4.998-.206 7.317-.442 2.318-.224 4.53-.308 6.542-.614 2.015-.278 3.872-.493 5.519-.682 1.64-.224 3.055-.517 4.231-.708 2.353-.388 3.697-.608 3.697-.608l-3.624.954c-1.16.28-2.557.679-4.186 1.028-1.63.32-3.474.68-5.495 1.03-2.014.4-4.226.588-6.555.92-2.326.347-4.798.52-7.357.698-2.555.226-5.201.262-7.891.37-2.69.134-5.422.052-8.156.085-2.733-.05-5.461-.202-8.15-.306-2.68-.193-5.323-.32-7.875-.555-5.101-.42-9.837-1.085-13.888-1.669-4.05-.588-7.395-1.27-9.733-1.734-2.34-.477-3.66-.821-3.66-.821" transform="translate(2) translate(0 89) translate(7 18.289)"/>
                <path fill="#9327E6" d="M98.01 168.027s.34 21.423 0 30.75c-.213 5.812-1.378 12.113-1.346 16.228.019 2.491.228 4.322 1.295 5.158 6.028 1.48 34.334 3.722 46.632 3.79 13.044.075 33.57-2.201 39.885-2.837 1.254-2.357-.102-7.178-.09-12.936.028-16.216.31-40.153.31-40.153H148.99" transform="translate(2) translate(0 89) translate(7 18.289)"/>
                <path fill="#FFF" d="M141.42 90.79l-6.092 4.29 1.742 6.461s1.05.477 4.35.585c3.301-.108 4.35-.585 4.35-.585l1.741-6.46-6.091-4.29z" transform="translate(2) translate(0 89) translate(7 18.289)"/>
                <path fill="#631AB2" d="M120.061 81.661l6.121-3.365s3.356 6.863 15.237 12.494c0 0-1.529 1.214-2.857 5.137-.47 1.388-1.4 5.692-1.4 5.692s-11.903-3.607-17.1-19.958M162.778 81.661l-6.12-3.365S153.3 85.16 141.42 90.79c0 0 1.53 1.214 2.858 5.137.47 1.388 1.401 5.692 1.401 5.692s11.901-3.607 17.1-19.958" transform="translate(2) translate(0 89) translate(7 18.289)"/>
                <path fill="#FFF" d="M144.9 101.62l-3.48-.969-3.48.968s-8.245 68.47-7.873 74.486c.739 12.026 7.784 22.986 10.392 26.66.471.669 1.449.669 1.924 0 2.606-3.674 9.651-14.634 10.39-26.66.371-6.015-7.873-74.486-7.873-74.486" transform="translate(2) translate(0 89) translate(7 18.289)"/>
                <path fill="#FFC1CD" d="M65.396 150.309s-6.349 18.558-6.154 21.623c.606 9.593 23.129 46.397 39.507 66.164l9.262-5.764s-4.523-10.68-7.417-17.655c-2.893-6.976-16.101-44.64-16.101-44.64l8.434-17.734-19.96 6.283-7.571-8.277z" transform="translate(2) translate(0 89) translate(7 18.289)"/>
                <path fill="#132236" d="M101.499 246.458l11.431-6.692s1.229-.845 2.444 1.04l-12.119 6.624c-1.112.607-2.282 1.113-3.513 1.406-.935.222-1.98.348-2.873.153l4.63-2.531z" transform="translate(2) translate(0 89) translate(7 18.289)"/>
                <path fill="#FFC1CD" d="M105.284 225.876s1.902 4.372 4.803 5.813c1.336.666 5.99 2.199 7.28 3.336 1.289 1.138 6.218 11.073 6.143 11.68-.077.605-1.518 1.743-3.944 0-1.068-.769-2.88-3.697-4.286-5.27-1.784-2.002-2.35-1.669-2.35-1.669l-11.431 6.692s-3.926-7.394-4.836-10.929c-.908-3.536 8.621-9.653 8.621-9.653" transform="translate(2) translate(0 89) translate(7 18.289)"/>
                <path fill="#EAE2F2" d="M218.519 241.988L180.468 241.988 210.802 187.99 242.112 187.99zM522.932 241.988L484.881 241.988 461.288 187.99 492.598 187.99z" transform="translate(2) translate(0 89) translate(7 18.289)"/>
                <path fill="#FFF" d="M256.572 241.988L218.519 241.988 242.112 187.99 273.423 187.99z" transform="translate(2) translate(0 89) translate(7 18.289)"/>
                <path fill="#EAE2F2" d="M294.623 241.988L256.572 241.988 273.424 187.99 304.735 187.99z" transform="translate(2) translate(0 89) translate(7 18.289)"/>
                <path fill="#FFF" d="M332.674 241.988L294.624 241.988 304.734 187.99 336.045 187.99z" transform="translate(2) translate(0 89) translate(7 18.289)"/>
                <path fill="#EAE2F2" d="M370.725 241.988L332.675 241.988 336.044 187.99 367.355 187.99z" transform="translate(2) translate(0 89) translate(7 18.289)"/>
                <path fill="#FFF" d="M408.777 241.988L370.726 241.988 367.355 187.99 398.665 187.99z" transform="translate(2) translate(0 89) translate(7 18.289)"/>
                <path fill="#EAE2F2" d="M446.829 241.988L408.777 241.988 398.665 187.99 429.976 187.99z" transform="translate(2) translate(0 89) translate(7 18.289)"/>
                <path fill="#FFF" d="M484.881 241.988L446.83 241.988 429.977 187.99 461.288 187.99z" transform="translate(2) translate(0 89) translate(7 18.289)"/>
                <path fill="#D3C6E0" d="M200.658 275.52h-2.33c-9.864 0-17.86-7.996-17.86-17.859v-15.674h38.05v15.674c0 9.863-7.995 17.86-17.86 17.86" transform="translate(2) translate(0 89) translate(7 18.289)"/>
                <path fill="#F0F1F7" d="M238.711 275.52h-2.331c-9.863 0-17.862-7.996-17.862-17.859v-15.674h38.053v15.674c0 9.863-7.995 17.86-17.86 17.86" transform="translate(2) translate(0 89) translate(7 18.289)"/>
                <path fill="#D3C6E0" d="M276.763 275.52h-2.33c-9.864 0-17.861-7.996-17.861-17.859v-15.674h38.05v15.674c0 9.863-7.995 17.86-17.86 17.86" transform="translate(2) translate(0 89) translate(7 18.289)"/>
                <path fill="#F0F1F7" d="M314.814 275.52h-2.33c-9.864 0-17.861-7.996-17.861-17.859v-15.674h38.05v15.674c0 9.863-7.995 17.86-17.86 17.86" transform="translate(2) translate(0 89) translate(7 18.289)"/>
                <path fill="#D3C6E0" d="M352.865 275.52h-2.33c-9.864 0-17.861-7.996-17.861-17.859v-15.674h38.05v15.674c0 9.863-7.995 17.86-17.86 17.86" transform="translate(2) translate(0 89) translate(7 18.289)"/>
                <path fill="#F0F1F7" d="M390.916 275.52h-2.33c-9.864 0-17.861-7.996-17.861-17.859v-15.674h38.05v15.674c0 9.863-7.995 17.86-17.859 17.86" transform="translate(2) translate(0 89) translate(7 18.289)"/>
                <path fill="#D3C6E0" d="M428.969 275.52h-2.332c-9.864 0-17.861-7.996-17.861-17.859v-15.674h38.053v15.674c0 9.863-7.998 17.86-17.86 17.86" transform="translate(2) translate(0 89) translate(7 18.289)"/>
                <path fill="#F0F1F7" d="M467.02 275.52h-2.331c-9.863 0-17.86-7.996-17.86-17.859v-15.674h38.05v15.674c0 9.863-7.994 17.86-17.859 17.86" transform="translate(2) translate(0 89) translate(7 18.289)"/>
                <path fill="#D3C6E0" d="M505.071 275.52h-2.33c-9.864 0-17.86-7.996-17.86-17.859v-15.674h38.05v15.674c0 9.863-7.995 17.86-17.86 17.86" transform="translate(2) translate(0 89) translate(7 18.289)"/>
                <path fill="#CAE9F5" d="M555.935 473.154L466.73 473.154 461.081 378.893 550.286 378.893z" transform="translate(2) translate(0 89) translate(7 18.289)"/>
                <path fill="#D55606" d="M466.441 471.96L467.152 483.91 557.834 483.91 557.122 471.96z" transform="translate(2) translate(0 89) translate(7 18.289)"/>
                <path fill="#F47321" d="M463.783 471.96L464.495 483.91 555.178 483.91 554.467 471.96z" transform="translate(2) translate(0 89) translate(7 18.289)"/>
                <path fill="#E5F6FC" d="M453.427 473.154L542.634 473.154 548.282 378.893 459.076 378.893z" transform="translate(2) translate(0 89) translate(7 18.289)"/>
                <path fill="#FFF" d="M464.564 464.113h68.246c1.018 0 1.858-.792 1.919-1.806l4.337-72.34c.065-1.104-.814-2.034-1.919-2.034H468.9c-1.015 0-1.856.79-1.916 1.806l-4.337 72.34c-.066 1.102.813 2.034 1.918 2.034" transform="translate(2) translate(0 89) translate(7 18.289)"/>
                <path fill="#D55606" d="M544.199 471.96L543.488 483.91 451.875 483.91 452.586 471.96z" transform="translate(2) translate(0 89) translate(7 18.289)"/>
                <path fill="#F47321" d="M541.434 471.96L540.722 483.91 449.977 483.91 450.689 471.96z" transform="translate(2) translate(0 89) translate(7 18.289)"/>
                <path fill="#D55606" d="M461.141 378.893L550.831 378.893 550.831 370.246 461.141 370.246z" transform="translate(2) translate(0 89) translate(7 18.289)"/>
                <path fill="#F47321" d="M457.887 378.893L547.577 378.893 547.577 370.246 457.887 370.246z" transform="translate(2) translate(0 89) translate(7 18.289)"/>
                <text fill="#1F334C" font-family="Montserrat-Bold, Montserrat" font-size="15.281" font-weight="bold" transform="translate(2) translate(0 89) translate(7 18.289)">
                    <tspan x="468.709" y="425.893">ONLINE</tspan>
                </text>
                <path fill="#CAE9F5" d="M450.69 160.687H252.712c-2.279 0-4.128-1.85-4.128-4.13v-47.74c0-2.281 1.85-4.13 4.128-4.13H450.69c2.279 0 4.128 1.849 4.128 4.13v47.74c0 2.28-1.85 4.13-4.128 4.13" transform="translate(2) translate(0 89) translate(7 18.289)"/>
                <path fill="#E5F6FC" d="M442.75 152.36h-182.1c-.688 0-1.244-.56-1.244-1.247V114.26c0-.688.556-1.245 1.244-1.245h182.1c.688 0 1.247.557 1.247 1.245v36.853c0 .688-.559 1.247-1.247 1.247" transform="translate(2) translate(0 89) translate(7 18.289)"/>
                <path stroke="#CAE3F9" stroke-linecap="round" stroke-linejoin="round" stroke-width="3.64" d="M448.546 156.529L448.546 156.529" transform="translate(2) translate(0 89) translate(7 18.289)"/>
                <path stroke="#E5F6FC" stroke-dasharray="0 7.174" stroke-linecap="round" stroke-linejoin="round" stroke-width="3.64" d="M441.373 156.529L258.441 156.529" transform="translate(2) translate(0 89) translate(7 18.289)"/>
                <path stroke="#CAE3F9" stroke-linecap="round" stroke-linejoin="round" stroke-width="3.64" d="M254.855 156.529L254.855 156.529" transform="translate(2) translate(0 89) translate(7 18.289)"/>
                <path stroke="#E5F6FC" stroke-dasharray="0 6.792" stroke-linecap="round" stroke-linejoin="round" stroke-width="3.64" d="M254.855 149.737L254.855 112.38" transform="translate(2) translate(0 89) translate(7 18.289)"/>
                <path stroke="#CAE3F9" stroke-linecap="round" stroke-linejoin="round" stroke-width="3.64" d="M254.855 108.983L254.855 108.983" transform="translate(2) translate(0 89) translate(7 18.289)"/>
                <path stroke="#E5F6FC" stroke-dasharray="0 7.174" stroke-linecap="round" stroke-linejoin="round" stroke-width="3.64" d="M262.028 108.983L444.96 108.983" transform="translate(2) translate(0 89) translate(7 18.289)"/>
                <path stroke="#CAE3F9" stroke-linecap="round" stroke-linejoin="round" stroke-width="3.64" d="M448.546 108.983L448.546 108.983" transform="translate(2) translate(0 89) translate(7 18.289)"/>
                <path stroke="#E5F6FC" stroke-dasharray="0 6.792" stroke-linecap="round" stroke-linejoin="round" stroke-width="3.64" d="M448.546 115.775L448.546 153.132" transform="translate(2) translate(0 89) translate(7 18.289)"/>
            </g>
            <g>
                <path fill="#C9B4EB" d="M87.08 62.775c3.714-5 5.661-11.39 4.839-18.267-1.37-11.455-10.573-20.735-22.022-22.159-15.527-1.929-28.74 10.129-28.74 25.271 0 13.848 10.627 24.92 24.465 25.456 5.43.21 10.5-1.284 14.72-3.985.285-.184.642-.206.944-.05l9.548 4.944c.411.213.86-.219.662-.64l-4.52-9.603c-.15-.317-.106-.685.103-.967" transform="translate(2) translate(0 89) translate(.82 .289)"/>
                <path stroke="#FFF" stroke-linecap="round" stroke-linejoin="round" stroke-width="2.959" d="M58.363 48.332L64.312 54.281 77.788 40.806" transform="translate(2) translate(0 89) translate(.82 .289)"/>
                <path fill="#EDFBEF" d="M58.207 231.17h-2.275v-2.275c0-1.007-.813-1.82-1.82-1.82-1.006 0-1.82.813-1.82 1.82v2.275h-2.275c-1.006 0-1.82.813-1.82 1.82 0 1.004.814 1.82 1.82 1.82h2.275v2.275c0 1.004.814 1.82 1.82 1.82 1.007 0 1.82-.816 1.82-1.82v-2.275h2.275c1.007 0 1.82-.816 1.82-1.82 0-1.007-.813-1.82-1.82-1.82" transform="translate(2) translate(0 89) translate(.82 .289)"/>
                <path fill="#F47321" fill-opacity=".15" d="M610.365 360.662h-2.275v-2.275c0-1.005-.814-1.82-1.82-1.82-1.007 0-1.82.815-1.82 1.82v2.275h-2.275c-1.007 0-1.82.815-1.82 1.82 0 1.006.813 1.82 1.82 1.82h2.275v2.275c0 1.006.813 1.82 1.82 1.82 1.006 0 1.82-.814 1.82-1.82v-2.275h2.275c1.006 0 1.82-.814 1.82-1.82 0-1.005-.814-1.82-1.82-1.82" transform="translate(2) translate(0 89) translate(.82 .289)"/>
                <path fill="#EDFBEF" d="M22.423 399.975c0 1.703-1.38 3.083-3.083 3.083-1.702 0-3.081-1.38-3.081-3.083 0-1.704 1.38-3.081 3.081-3.081 1.704 0 3.083 1.377 3.083 3.08" transform="translate(2) translate(0 89) translate(.82 .289)"/>
                <path fill="#4CD964" fill-opacity=".15" d="M243.548 155.625c0 1.701-1.382 3.081-3.083 3.081-1.702 0-3.083-1.38-3.083-3.081 0-1.704 1.381-3.083 3.083-3.083 1.701 0 3.083 1.38 3.083 3.083" transform="translate(2) translate(0 89) translate(.82 .289)"/>
                <path fill="#F4E8FF" d="M594.088 155.625c0 2.242-1.818 4.06-4.06 4.06-2.245 0-4.061-1.818-4.061-4.06 0-2.242 1.816-4.06 4.06-4.06 2.243 0 4.06 1.818 4.06 4.06M551.34 247.704c0 3.153-2.558 5.712-5.712 5.712s-5.711-2.56-5.711-5.712c0-3.154 2.557-5.713 5.711-5.713 3.154 0 5.711 2.56 5.711 5.713" transform="translate(2) translate(0 89) translate(.82 .289)"/>
                <path fill="#F47321" fill-opacity=".15" d="M577.845 376.37c0 2.242-1.818 4.06-4.059 4.06-2.244 0-4.062-1.818-4.062-4.06 0-2.242 1.818-4.06 4.062-4.06 2.24 0 4.059 1.818 4.059 4.06" transform="translate(2) translate(0 89) translate(.82 .289)"/>
                <path fill="#C8DDFC" d="M194.248 432.685c0 1.303-1.058 2.359-2.36 2.359-1.304 0-2.36-1.056-2.36-2.359s1.056-2.359 2.36-2.359c1.302 0 2.36 1.056 2.36 2.359" transform="translate(2) translate(0 89) translate(.82 .289)"/>
                <path fill="#F47321" fill-opacity=".15" d="M602.209 433.71c0 2.243-1.818 4.061-4.06 4.061-2.243 0-4.061-1.818-4.061-4.06 0-2.24 1.818-4.06 4.06-4.06 2.243 0 4.06 1.82 4.06 4.06" transform="translate(2) translate(0 89) translate(.82 .289)"/>
                <path fill="#EDFBEF" d="M68.075 260.157c-2.242 0-4.06-1.818-4.06-4.06 0-2.242 1.818-4.059 4.06-4.059 2.242 0 4.06 1.817 4.06 4.059s-1.818 4.06-4.06 4.06z" transform="translate(2) translate(0 89) translate(.82 .289)"/>
                <path fill="#4CD964" fill-opacity=".15" d="M209.734 62.714c0 2.242-1.816 4.06-4.059 4.06-2.244 0-4.062-1.818-4.062-4.06 0-2.242 1.818-4.06 4.062-4.06 2.243 0 4.059 1.818 4.059 4.06" transform="translate(2) translate(0 89) translate(.82 .289)"/>
                <path fill="#EDFBEF" d="M58.173 114.459c0 2.242-1.819 4.06-4.06 4.06-2.243 0-4.061-1.818-4.061-4.06 0-2.243 1.818-4.06 4.06-4.06 2.242 0 4.06 1.817 4.06 4.06M33.059 213.992c0 2.242-1.819 4.06-4.06 4.06-2.243 0-4.061-1.818-4.061-4.06 0-2.242 1.818-4.06 4.06-4.06 2.242 0 4.06 1.818 4.06 4.06" transform="translate(2) translate(0 89) translate(.82 .289)"/>
                <path fill="#4CD964" fill-opacity=".15" d="M342.68 6.047c0 2.242-1.817 4.06-4.06 4.06-2.242 0-4.06-1.818-4.06-4.06 0-2.242 1.818-4.06 4.06-4.06 2.243 0 4.06 1.818 4.06 4.06M516.226 154.646c0 2.243-1.816 4.06-4.059 4.06-2.244 0-4.062-1.817-4.062-4.06 0-2.242 1.818-4.06 4.062-4.06 2.243 0 4.06 1.818 4.06 4.06" transform="translate(2) translate(0 89) translate(.82 .289)"/>
                <path fill="#F4E8FF" d="M606.27 72.725c0 2.242-1.818 4.06-4.06 4.06-2.245 0-4.063-1.818-4.063-4.06 0-2.242 1.818-4.06 4.062-4.06 2.243 0 4.06 1.818 4.06 4.06M620.684 289.461c0 2.24-1.818 4.059-4.06 4.059-2.243 0-4.06-1.818-4.06-4.059 0-2.242 1.817-4.06 4.06-4.06 2.242 0 4.06 1.818 4.06 4.06" transform="translate(2) translate(0 89) translate(.82 .289)"/>
                <path fill="#EDFBEF" d="M52.258 457.154c0 2.24-1.819 4.058-4.06 4.058-2.243 0-4.061-1.818-4.061-4.058 0-2.243 1.818-4.06 4.06-4.06 2.242 0 4.06 1.817 4.06 4.06" transform="translate(2) translate(0 89) translate(.82 .289)"/>
                <path fill="#E6F4FF" d="M541.783 94.477h-2.275v-2.275c0-1.005-.814-1.82-1.82-1.82-1.007 0-1.82.815-1.82 1.82v2.275h-2.275c-1.007 0-1.82.815-1.82 1.82 0 1.005.813 1.82 1.82 1.82h2.275v2.275c0 1.005.813 1.82 1.82 1.82 1.006 0 1.82-.815 1.82-1.82v-2.275h2.275c1.006 0 1.82-.815 1.82-1.82 0-1.005-.814-1.82-1.82-1.82" transform="translate(2) translate(0 89) translate(.82 .289)"/>
                <path fill="#4CD964" fill-opacity=".15" d="M541.783 10.142h-2.275V7.867c0-1.005-.814-1.82-1.82-1.82-1.007 0-1.82.815-1.82 1.82v2.275h-2.275c-1.007 0-1.82.815-1.82 1.82 0 1.005.813 1.82 1.82 1.82h2.275v2.275c0 1.005.813 1.82 1.82 1.82 1.006 0 1.82-.815 1.82-1.82v-2.275h2.275c1.006 0 1.82-.815 1.82-1.82 0-1.005-.814-1.82-1.82-1.82M221.077 4.227h-2.275V1.952c0-1.005-.814-1.82-1.82-1.82-1.007 0-1.82.815-1.82 1.82v2.275h-2.275c-1.007 0-1.82.815-1.82 1.82 0 1.005.813 1.82 1.82 1.82h2.275v2.275c0 1.005.813 1.82 1.82 1.82 1.006 0 1.82-.815 1.82-1.82V7.867h2.275c1.006 0 1.82-.815 1.82-1.82 0-1.005-.814-1.82-1.82-1.82" transform="translate(2) translate(0 89) translate(.82 .289)"/>
                <path stroke="#23334A" stroke-linecap="round" stroke-width="4.002" d="M0.181 503.958L622.621 503.958" transform="translate(2) translate(0 89) translate(.82 .289)"/>
            </g>
            <g opacity=".5">
                <g transform="translate(2) translate(0 89) translate(242.5 46.26) translate(.97 1.82)">
                    <circle cx="28.496" cy="11.049" r="11.049" fill="#F4E8FF"/>
                    <rect width="33.73" height="40.708" x="-1.745" y="7.56" stroke="#23334A" stroke-width="3.489" rx="5.815"/>
                    <circle cx="15.12" cy="32.567" r="8.723" stroke="#9327E6" stroke-width="3.489"/>
                    <rect width="3.489" height="6.979" x="4.652" y="47.687" fill="#23334A" rx="1.745"/>
                    <rect width="3.489" height="6.979" x="22.099" y="47.687" fill="#23334A" rx="1.745"/>
                    <circle cx="11.049" cy="14.539" r="1.745" fill="#23334A"/>
                    <circle cx="6.397" cy="14.539" r="1.745" fill="#23334A"/>
                    <path stroke="#23334A" stroke-linecap="round" stroke-linejoin="round" stroke-width="3.489" d="M25.588 14.539L17.446 14.539"/>
                </g>
                <g transform="translate(2) translate(0 89) translate(242.5 46.26) translate(165.676 .728)">
                    <circle cx="12.099" cy="40.119" r="12.099" fill="#F4E8FF"/>
                    <g fill-rule="nonzero">
                        <path fill="#9327E6" d="M38.185 13.316c0 .81.657 1.468 1.468 1.468.812 0 1.469-.657 1.469-1.468 0-2.43 1.977-4.406 4.406-4.406.811 0 1.469-.658 1.469-1.469s-.658-1.469-1.47-1.469c-2.388 0-4.405-2.062-4.405-4.503C41.122.657 40.465 0 39.653 0c-.81 0-1.468.657-1.468 1.469 0 2.44-2.018 4.503-4.406 4.503-.811 0-1.469.658-1.469 1.47 0 .81.658 1.468 1.469 1.468 2.43 0 4.406 1.976 4.406 4.406zm1.468-7.403c.423.57.93 1.084 1.493 1.514-.566.421-1.068.923-1.493 1.487-.423-.564-.927-1.066-1.493-1.487.562-.43 1.07-.944 1.493-1.514z" transform="translate(5.094)"/>
                        <path fill="#23334A" d="M0 33.877v5.972c0 1.915 1.228 3.547 2.937 4.154v1.72c0 2.43 1.977 4.407 4.406 4.407 2.43 0 4.406-1.977 4.406-4.406v-1.469H32.31v1.469c0 2.43 1.977 4.406 4.406 4.406 2.43 0 4.406-1.977 4.406-4.406v-1.721c1.71-.607 2.937-2.24 2.937-4.154v-5.972c0-3.65-2.678-6.687-6.173-7.249l-2.126-8.506c-.492-1.965-2.249-3.338-4.274-3.338h-15.33c-2.43 0-4.407-1.976-4.407-4.406 0-.81-.657-1.468-1.468-1.468-.812 0-1.47.657-1.47 1.468 0 2.43-1.976 4.406-4.405 4.406-.811 0-1.469.658-1.469 1.469s.658 1.469 1.469 1.469c1.452 0 2.742.706 3.545 1.793l-1.778 7.113C2.678 27.19 0 30.226 0 33.877zm8.812 11.847c0 .81-.66 1.468-1.469 1.468-.81 0-1.468-.659-1.468-1.468v-1.469h2.937v1.469zm27.904 1.468c-.81 0-1.469-.659-1.469-1.468v-1.469h2.938v1.469c0 .81-.66 1.468-1.469 1.468zm4.406-13.315v5.972c0 .81-.659 1.469-1.469 1.469H4.406c-.81 0-1.469-.66-1.469-1.469v-5.972c0-2.428 1.974-4.403 4.4-4.406h29.384c2.428.003 4.401 1.978 4.401 4.406zm-17.229-7.344c.509-.876 1.458-1.468 2.543-1.468 1.084 0 2.033.592 2.542 1.468h-5.085zm-7.738-8.811h15.33c.676 0 1.262.457 1.425 1.112l1.925 7.7h-2.71c-.655-2.531-2.957-4.406-5.69-4.406-2.732 0-5.034 1.875-5.688 4.405H9.224l.743-2.971c.101.022.206.034.314.034.81 0 1.468-.657 1.468-1.468 0-2.43 1.977-4.406 4.406-4.406zm-5.874-2.942c.418.558.915 1.054 1.473 1.473-.558.419-1.055.916-1.473 1.473-.42-.558-.916-1.054-1.474-1.473.558-.419 1.055-.916 1.474-1.473z" transform="translate(5.094)"/>
                        <path fill="#9327E6" d="M36.06 32.563L30.184 35.5c-.726.363-1.02 1.245-.657 1.97.363.726 1.245 1.02 1.97.657l5.875-2.937c.725-.362 1.02-1.245.657-1.97-.363-.725-1.245-1.02-1.97-.657zM13.874 35.5L8 32.563c-.725-.363-1.608-.068-1.97.657-.363.725-.069 1.608.656 1.97l5.875 2.937c.727.364 1.608.068 1.97-.656.363-.726.069-1.608-.657-1.97zM24.967 35.345h-5.875c-.81 0-1.468.658-1.468 1.469s.657 1.469 1.468 1.469h5.875c.811 0 1.469-.658 1.469-1.469s-.658-1.469-1.47-1.469z" transform="translate(5.094)"/>
                    </g>
                </g>
                <g transform="translate(2) translate(0 89) translate(242.5 46.26) translate(258.678 7.098)">
                    <circle cx="43.33" cy="15.257" r="11.595" fill="#F4E8FF"/>
                    <g fill-rule="nonzero">
                        <path fill="#9327E6" d="M21.099 34.916c.024 0 .048 0 .072-.002.79-.04 1.399-.712 1.36-1.502l-.383-7.638c-.04-.79-.711-1.397-1.501-1.359-.79.04-1.399.712-1.36 1.502l.383 7.638c.038.766.67 1.36 1.429 1.36zM27.712 34.914l.072.002c.758 0 1.391-.595 1.43-1.36l.381-7.639c.04-.79-.568-1.462-1.358-1.502-.792-.04-1.463.57-1.502 1.36l-.382 7.637c-.04.79.569 1.463 1.359 1.502zM13 33.696c.107.71.718 1.22 1.415 1.22.07 0 .142-.005.214-.016.782-.117 1.321-.846 1.204-1.629l-1.146-7.638c-.117-.782-.846-1.32-1.628-1.203-.783.117-1.322.846-1.204 1.628L13 33.696zM34.254 34.9c.072.01.144.016.214.016.697 0 1.308-.51 1.415-1.22l1.145-7.638c.118-.782-.421-1.511-1.203-1.628-.784-.118-1.512.421-1.63 1.203l-1.145 7.638c-.117.783.422 1.512 1.204 1.63z"/>
                        <path fill="#23334A" d="M44.587 12.957h-.627l4.791-10.38c.331-.718.018-1.569-.7-1.9-.718-.332-1.57-.018-1.9.7l-5.345 11.58H8.077L2.733 1.377C2.4.659 1.55.345.833.677c-.719.331-1.032 1.182-.7 1.9l4.79 10.38h-.627C1.927 12.957 0 14.884 0 17.253c0 2.005 1.38 3.693 3.24 4.165l3.632 14.526c.692 2.767 3.168 4.7 6.02 4.7H35.99c2.853 0 5.329-1.933 6.021-4.7l3.631-14.526c1.86-.472 3.241-2.16 3.241-4.165 0-2.369-1.927-4.296-4.296-4.296zm-5.355 22.292c-.372 1.49-1.706 2.531-3.242 2.531H12.893c-1.536 0-2.87-1.04-3.242-2.531l-3.425-13.7h36.431l-3.425 13.7zm5.355-16.564H4.297c-.79 0-1.433-.642-1.433-1.432 0-.79.643-1.432 1.432-1.432h40.29c.79 0 1.433.642 1.433 1.432 0 .79-.642 1.432-1.432 1.432z"/>
                    </g>
                </g>
                <g transform="translate(2) translate(0 89) translate(242.5 46.26) translate(71.4 3.094)">
                    <circle cx="11.999" cy="37.261" r="11.999" fill="#F4E8FF"/>
                    <path fill="#23334A" fill-rule="nonzero" d="M43.479 18.822L25.736 5.423c-.654-.494-1.557-.494-2.212 0l-17.742 13.4c-.46.346-.73.888-.73 1.464v22.086c0 1.014.822 1.835 1.836 1.835h35.485c1.014 0 1.835-.821 1.835-1.835V20.287c0-.576-.27-1.118-.73-1.465zm-15.79 21.715h-6.118v-8.565h6.118v8.565zm12.848 0H31.36v-10.4c0-1.014-.822-1.836-1.835-1.836h-9.79c-1.013 0-1.835.822-1.835 1.836v10.4H8.723V21.201L24.63 9.188 40.537 21.2v19.336zM50.531 12.957c.651-1.922 2.181-3.453 4.103-4.106.545-.166.942-.673.942-1.273 0-.597-.394-1.102-.936-1.27-1.923-.65-3.454-2.18-4.107-4.102-.165-.546-.672-.943-1.272-.943-.598 0-1.103.394-1.27.937-.652 1.922-2.182 3.454-4.103 4.106-.546.166-.943.673-.943 1.273 0 .597.394 1.102.937 1.27 1.922.65 3.453 2.18 4.106 4.102.166.546.673.943 1.273.943.597 0 1.102-.394 1.27-.937zm-3.375-5.379c.81-.583 1.521-1.295 2.105-2.104.583.81 1.295 1.52 2.104 2.104-.81.584-1.52 1.296-2.104 2.105-.584-.81-1.296-1.52-2.105-2.105z"/>
                    <path fill="#9327E6" fill-rule="nonzero" d="M54.122 20.019h-.882v-.882c0-.803-.65-1.454-1.453-1.454s-1.454.651-1.454 1.454v.882h-.882c-.803 0-1.453.65-1.453 1.454 0 .802.65 1.453 1.453 1.453h.882v.882c0 .803.651 1.454 1.454 1.454.803 0 1.454-.651 1.454-1.454v-.882h.881c.803 0 1.454-.65 1.454-1.453s-.65-1.454-1.454-1.454z"/>
                    <path fill="#23334A" fill-rule="nonzero" d="M34.294 5.243h.882v.882c0 .803.651 1.454 1.454 1.454.803 0 1.453-.651 1.453-1.454v-.882h.882c.803 0 1.454-.65 1.454-1.454 0-.803-.65-1.453-1.454-1.453h-.882v-.882C38.083.65 37.433 0 36.63 0s-1.454.65-1.454 1.454v.882h-.882c-.803 0-1.454.65-1.454 1.453s.651 1.454 1.454 1.454z"/>
                </g>
            </g>
        </g>
    </g>
</svg>
