<svg xmlns="http://www.w3.org/2000/svg" width="200" height="59" viewBox="0 0 200 59">
    <defs>
        <linearGradient id="9riy4fcgwa" x1="61.179%" x2="25.915%" y1="94.867%" y2="27.966%">
            <stop offset="0%" stop-color="#00A0FF"/>
            <stop offset="1%" stop-color="#00A1FF"/>
            <stop offset="26%" stop-color="#00BEFF"/>
            <stop offset="51%" stop-color="#00D2FF"/>
            <stop offset="76%" stop-color="#00DFFF"/>
            <stop offset="100%" stop-color="#00E3FF"/>
        </linearGradient>
        <linearGradient id="ngruzrbwkb" x1="106.765%" x2="-130.766%" y1="49.581%" y2="49.581%">
            <stop offset="0%" stop-color="#FFE000"/>
            <stop offset="41%" stop-color="#FFBD00"/>
            <stop offset="78%" stop-color="orange"/>
            <stop offset="100%" stop-color="#FF9C00"/>
        </linearGradient>
        <linearGradient id="rkrm90tw6c" x1="35.979%" x2="-100.068%" y1="48.085%" y2="-54.541%">
            <stop offset="0%" stop-color="#FF3A44"/>
            <stop offset="100%" stop-color="#C31162"/>
        </linearGradient>
        <linearGradient id="ic4jtdfiqd" x1="-68.789%" x2="-8.044%" y1="130.582%" y2="84.778%">
            <stop offset="0%" stop-color="#32A071"/>
            <stop offset="7%" stop-color="#2DA771"/>
            <stop offset="48%" stop-color="#15CF74"/>
            <stop offset="80%" stop-color="#06E775"/>
            <stop offset="100%" stop-color="#00F076"/>
        </linearGradient>
    </defs>
    <g fill="none">
        <path fill="#000" d="M192.516 58.554H7.405C3.342 58.564.035 55.291 0 51.23V7.319C.037 3.257 3.345-.012 7.405 0h185.11c4.06-.01 7.368 3.258 7.405 7.318v43.91c-.034 4.063-3.342 7.336-7.404 7.326z"/>
        <path fill="#A6A6A6" d="M192.516 1.173c3.412-.016 6.194 2.733 6.219 6.145v43.91c-.025 3.413-2.807 6.162-6.22 6.146H7.406c-3.412.016-6.194-2.733-6.22-6.145V7.319c.026-3.413 2.808-6.162 6.22-6.146h185.11m0-1.173H7.406C3.345-.01.037 3.258 0 7.318v43.91c.034 4.063 3.342 7.336 7.405 7.326h185.11c4.06.01 7.367-3.258 7.405-7.318V7.318c-.037-4.06-3.344-7.329-7.404-7.318z"/>
        <path fill="#FFF" stroke="#FFF" stroke-width=".16" d="M70.22 14.993c0 1.221-.37 2.202-1.1 2.932-.838.866-1.928 1.3-3.27 1.3-1.221.02-2.4-.453-3.267-1.314-.885-.857-1.372-2.044-1.344-3.275-.03-1.229.458-2.413 1.344-3.265.864-.867 2.044-1.344 3.268-1.323.626.001 1.246.127 1.824.371.533.212 1.01.547 1.388.979l-.774.773c-.593-.694-1.402-1.036-2.438-1.036-.906-.013-1.779.334-2.43.964-.681.664-1.05 1.586-1.011 2.537-.034.952.336 1.873 1.019 2.537.652.628 1.524.974 2.429.964.926.026 1.822-.327 2.482-.978.456-.483.72-1.115.744-1.778h-3.233v-1.05h4.303c.046.217.068.44.065.662z"/>
        <path fill="#FFF" stroke="#FFF" stroke-width=".16" d="M5.239 1.205L1.205 1.205 1.205 3.988 4.848 3.988 4.848 5.046 1.205 5.046 1.205 7.827 5.246 7.827 5.246 8.916 0.053 8.916 0.053 0.128 5.239 0.128z" transform="translate(71.807 10.12)"/>
        <path fill="#FFF" stroke="#FFF" stroke-width=".16" d="M3.79 8.916L2.651 8.916 2.651 1.205 0.166 1.205 0.166 0.128 6.265 0.128 6.265 1.205 3.79 1.205z" transform="translate(78.072 10.12)"/>
        <path fill="#FFF" stroke="#FFF" stroke-width=".16" d="M0.084 8.916L0.084 0.128 1.227 0.128 1.227 8.916z" transform="translate(88.675 10.12)"/>
        <path fill="#FFF" stroke="#FFF" stroke-width=".16" d="M3.639 8.916L2.504 8.916 2.504 1.205 0.017 1.205 0.017 0.128 6.128 0.128 6.128 1.205 3.639 1.205z" transform="translate(91.325 10.12)"/>
        <path fill="#FFF" stroke="#FFF" stroke-width=".16" d="M109.007 17.894c-1.809 1.767-4.697 1.767-6.506 0-.864-.861-1.337-2.039-1.308-3.258-.029-1.22.444-2.397 1.308-3.258 1.805-1.777 4.702-1.777 6.506 0 .866.858 1.341 2.033 1.316 3.25.027 1.224-.448 2.404-1.316 3.266h0zm-5.67-.735c1.34 1.312 3.48 1.312 4.82 0 .666-.667 1.028-1.58 1-2.523.03-.941-.328-1.853-.99-2.523-1.34-1.311-3.481-1.311-4.82 0-.663.67-1.021 1.582-.99 2.523-.035.94.32 1.853.98 2.523h0z"/>
        <path fill="#FFF" stroke="#FFF" stroke-width=".16" d="M0.113 8.916L0.113 0.128 1.501 0.128 5.819 6.954 5.867 6.954 5.819 5.267 5.819 0.128 6.961 0.128 6.961 8.916 5.769 8.916 1.248 1.742 1.205 1.742 1.255 3.429 1.255 8.916z" transform="translate(111.807 10.12)"/>
        <path fill="#FFF" d="M100.901 31.839c-3.48 0-6.32 2.616-6.32 6.226s2.84 6.224 6.32 6.224c3.48 0 6.328-2.643 6.328-6.217 0-3.573-2.843-6.233-6.328-6.233zm0 9.997c-1.908 0-3.552-1.556-3.552-3.77 0-2.215 1.644-3.777 3.552-3.777 1.909 0 3.557 1.53 3.557 3.783s-1.648 3.764-3.557 3.764zm-13.79-9.997c-3.484 0-6.318 2.616-6.318 6.226s2.834 6.224 6.318 6.224c3.484 0 6.32-2.65 6.32-6.224 0-3.573-2.829-6.226-6.32-6.226zm0 9.997c-1.909 0-3.557-1.556-3.557-3.77 0-2.215 1.648-3.777 3.557-3.777 1.908 0 3.552 1.53 3.552 3.776 0 2.246-1.644 3.771-3.552 3.771zm-16.407-8.089v2.65h6.404c-.188 1.478-.686 2.564-1.445 3.323-.933.914-2.386 1.928-4.938 1.928-3.88 0-7.026-3.146-7.026-7.026s3.146-7.027 7.026-7.027c1.792-.029 3.523.65 4.82 1.887l1.886-1.863c-1.79-1.747-4.202-2.707-6.703-2.667-5.395 0-9.928 4.337-9.928 9.67 0 5.332 4.501 9.667 9.904 9.667 2.915 0 5.106-.944 6.826-2.716 1.764-1.744 2.313-4.195 2.313-6.175.005-.554-.043-1.107-.144-1.651h-8.995zm67.096 2.05c-.52-1.392-2.125-3.958-5.395-3.958-3.27 0-5.938 2.522-5.938 6.233-.027 1.663.624 3.266 1.802 4.44 1.179 1.174 2.784 1.818 4.447 1.784 2.102.02 4.074-1.016 5.25-2.759l-2.147-1.414c-.723 1.036-1.686 1.72-3.103 1.72-1.417 0-2.41-.633-3.05-1.884l8.433-3.446-.299-.715zm-8.59 2.073c-.053-.92.265-1.822.883-2.504.619-.682 1.486-1.088 2.406-1.125 1.099 0 2.034.542 2.344 1.32l-5.633 2.309zm-6.849 6.04h2.772V25.615h-2.772v18.297zm-4.53-10.686h-.091c-.856-.912-2.06-1.416-3.311-1.385-3.157 0-6.039 2.737-6.039 6.245 0 3.509 2.892 6.205 6.039 6.205 1.256.03 2.464-.485 3.31-1.414h.092v.891c0 2.381-1.286 3.66-3.373 3.66-1.687 0-2.742-1.204-3.174-2.224l-2.41.996c.943 2.245 3.148 3.7 5.584 3.682 3.248 0 5.988-1.887 5.988-6.482V32.217h-2.615v1.007zm-3.166 8.612c-1.908 0-3.506-1.578-3.506-3.752 0-2.173 1.598-3.795 3.506-3.795 1.908 0 3.374 1.603 3.374 3.795 0 2.193-1.5 3.752-3.379 3.752h.005zm36.099-16.222h-6.624v18.297h2.764v-6.933h3.855c3.068 0 6.075-2.195 6.075-5.684 0-3.49-3.01-5.68-6.07-5.68zm.072 8.82h-3.932v-6.265h3.94c1.73 0 3.132 1.402 3.132 3.132 0 1.73-1.403 3.133-3.133 3.133h-.007zm17.072-2.627c-1.995 0-4.07.873-4.922 2.803l2.45 1.014c.528-1.014 1.497-1.344 2.523-1.344 1.446 0 2.892.85 2.908 2.354v.19c-.891-.468-1.884-.71-2.891-.706-2.65 0-5.328 1.446-5.328 4.116 0 2.45 2.169 4.031 4.579 4.031 1.86 0 2.891-.829 3.53-1.793h.094v1.412h2.667v-7.017c.017-3.248-2.434-5.06-5.61-5.06zm-.332 10.027c-.904 0-2.169-.441-2.169-1.55 0-1.414 1.569-1.959 2.928-1.959.881-.02 1.752.191 2.525.615-.224 1.646-1.623 2.877-3.284 2.889v.005zm15.677-9.624l-3.173 7.93h-.097l-3.282-7.93h-2.966l4.932 11.084-2.814 6.169h2.892l7.597-17.251-3.089-.002zm-24.896 11.7h2.77V25.615h-2.77v18.297z"/>
        <path fill="url(#9riy4fcgwa)" d="M.754.19C.32.641.067 1.342.067 2.248v32.369c0 .908.241 1.61.687 2.06l.109.099 18.351-18.133v-.426L.863.084.754.19z" transform="translate(14.699 10.843)"/>
        <path fill="url(#ngruzrbwkb)" d="M6.29 12.643L.177 6.595V6.17L6.296.12l.135.08 7.246 4.075c2.068 1.156 2.068 3.058 0 4.221l-7.246 4.068-.142.08z" transform="translate(33.735 22.892)"/>
        <path fill="url(#rkrm90tw6c)" d="M24.745 6.299L18.492.116.032 18.364c.686.723 1.807.797 3.079.084l21.634-12.15" transform="translate(15.422 29.157)"/>
        <path fill="url(#ic4jtdfiqd)" d="M24.745 12.73L3.11.578C1.839-.128.718-.04.03.672l18.46 18.239 6.254-6.18z" transform="translate(15.422 10.361)"/>
    </g>
</svg>
